<?xml version="1.0" encoding="utf-8"?>
<!-- Generator: Adobe Illustrator 17.0.0, SVG Export Plug-In . SVG Version: 6.00 Build 0)  -->
<!DOCTYPE svg PUBLIC "-//W3C//DTD SVG 1.1//EN" "http://www.w3.org/Graphics/SVG/1.1/DTD/svg11.dtd">
<svg version="1.1" id="loader" xmlns="http://www.w3.org/2000/svg" xmlns:xlink="http://www.w3.org/1999/xlink" x="0px" y="0px"
	 width="58.583px" height="68.681px" viewBox="0 0 58.583 68.681" enable-background="new 0 0 58.583 68.681" xml:space="preserve">
<path id="pick" fill="#C02326" d="M29.291,0.015c0,0,25.892-1.143,28.97,16.621C61.34,34.4,41.571,63.843,29.291,68.681l0,0
	C17.01,63.843-2.757,34.4,0.321,16.636S29.291,0.015,29.291,0.015"/>
<path id="figure" fill="#FFFFFF" d="M41.403,20.929c0.064,0.181,0.23,0.422,0.167,0.528c-0.083,0.141-0.344,0.177-0.604,0.291
	c0-0.267,0-0.425,0-0.689c-0.313,0.169-0.676,0.244-0.765,0.443c-0.113,0.252-0.003,0.603,0.017,1.066
	c-0.308-0.139-0.598-0.269-1.021-0.459c-0.622,0.088-0.441,0.757-0.478,1.449c-0.244-0.345-0.376-0.532-0.509-0.719
	c-0.045,0.019-0.09,0.038-0.135,0.057c0.214,0.643,0.475,1.275,0.631,1.932c0.28,1.177,0.747,2.296,0.576,3.594
	c-0.091,0.689,0.369,1.46,0.616,2.181c0.429,1.255,0.585,2.518,0.108,3.786c-0.302,0.805-0.963,1.171-1.786,0.933
	c-0.724-0.209-1.411-0.55-2.181-0.859c-0.177,3.679,0.941,7.224,1.249,10.884c-0.41,0.11-0.807,0.217-1.217,0.327
	c0,0.288,0.052,0.578-0.009,0.841c-0.245,1.051-0.366,1.13-1.468,1.13c-3.407,0-6.814,0.008-10.221-0.006
	c-0.755-0.003-1.469,0.026-2.231-0.369c-1.116-0.579-2.377-0.892-3.592-1.265c-0.676-0.208-0.985-0.721-1.061-1.303
	c-0.178-1.365-0.319-2.744-0.341-4.119c-0.022-1.413,0.308-2.785,0.848-4.104c0.076-0.185,0.018-0.473-0.074-0.668
	c-0.185-0.395-0.455-0.749-0.652-1.139c-0.103-0.204-0.189-0.452-0.174-0.673c0.041-0.585,0.123-1.169,0.225-1.747
	c0.056-0.319,0.122-0.665,0.293-0.929c0.742-1.148,1.57-2.243,2.279-3.411c0.603-0.993,1.103-2.051,1.615-3.096
	c0.287-0.585,0.525-1.196,0.752-1.807c0.301-0.808,0.943-1.117,1.723-1.229c0.886-0.127,1.779-0.224,2.481-0.943
	c-1.249-0.873-1.943-2.127-2.537-3.456c-0.097-0.218-0.236-0.422-0.381-0.613c-1.151-1.521-0.856-2.683,0.208-3.911
	c0.532-0.614,1.306-1.254,2.057-1.383c0.979-0.169,2.21-0.325,3.007,0.475c0.548,0.549,0.757,1.435,1.124,2.167
	c0.131,0.262,0.353,0.498,0.411,0.772c0.108,0.509,0.249,1.062,0.151,1.551c-0.129,0.648,0.108,2.021,0.562,2.505
	c0.799,0.854,1.582,1.735,2.769,2.03c0.864,0.215,1.749,0.349,2.63,0.486c0.132,0.021,0.305-0.129,0.44-0.227
	c1.272-0.917,2.531-1.85,3.812-2.754c0.395-0.279,1.269,0.349,1.234,0.956c-0.029,0.505-0.276,0.998-0.426,1.496
	C41.485,20.931,41.444,20.93,41.403,20.929z M23.145,30.909c-0.542,0.556-1.123,1.152-1.648,1.692
	c0.282-0.111,0.691-0.243,1.075-0.429C23.344,31.796,23.388,31.653,23.145,30.909z"/>
<g>
</g>
<g>
</g>
<g>
</g>
<g>
</g>
<g>
</g>
<g>
</g>
</svg>
